<svg xmlns="http://www.w3.org/2000/svg" width="960" height="900" viewBox="0 0 960 900" role="img" aria-label="What the watch sees: a Lead's or Peer's timeline folds into a window. Code reads facts from it and from each lane's record. Beside the code, one reader chosen by attention.by: a Watcher seat, the default, mailed readings of the new steps and answering with raise and judge; or Jev, only with a key, asked about four views of the turn's trail, with the step it meant pinpointed. Incidents are kept one per seat, kind and reader; an attend-level one about a Peer goes to its Lead, one about a Lead, a page, or one whose Lead is gone to the Supervisor, and whoever gets it marks it with ack; calibrate reads the marks against what was kept.">
<title>What the watch sees: a Lead's or Peer's timeline folds into a window. Code reads facts from it and from each lane's record. Beside the code, one reader chosen by attention.by: a Watcher seat, the default, mailed readings of the new steps and answering with raise and judge; or Jev, only with a key, asked about four views of the turn's trail, with the step it meant pinpointed. Incidents are kept one per seat, kind and reader; an attend-level one about a Peer goes to its Lead, one about a Lead, a page, or one whose Lead is gone to the Supervisor, and whoever gets it marks it with ack; calibrate reads the marks against what was kept.</title>
<style>svg{--bg:#ffffff;--panel:#f6f8fa;--line:#d0d7de;--soft:#e6eaef;--ink:#1f2328;--muted:#59636e;--faint:#818b98;--shadow:rgba(31,35,40,0.10);--slate-fill:#f6f8fa;--slate:#8c959f;--slate-ink:#1f2328;--violet-fill:#f7f1ff;--violet:#8250df;--violet-ink:#6639ba;--blue-fill:#eef6ff;--blue:#0969da;--blue-ink:#0550ae;--green-fill:#eefbf1;--green:#1a7f37;--green-ink:#116329;--teal-fill:#ebf9f7;--teal:#0f766e;--teal-ink:#0b5e57;--rose-fill:#fff0f7;--rose:#bf3989;--rose-ink:#99286e;--amber-fill:#fff8e1;--amber:#9a6700;--amber-ink:#7d4e00;--red-fill:#fff1f0;--red:#cf222e;--red-ink:#a40e26;}@media (prefers-color-scheme: dark){svg{--bg:#0d1117;--panel:#151b23;--line:#30363d;--soft:#262c36;--ink:#e6edf3;--muted:#9198a1;--faint:#6e7681;--shadow:rgba(0,0,0,0);--slate-fill:#1c2128;--slate:#6e7681;--slate-ink:#e6edf3;--violet-fill:#231b35;--violet:#a371f7;--violet-ink:#d2a8ff;--blue-fill:#0f2238;--blue:#4493f8;--blue-ink:#79c0ff;--green-fill:#10261a;--green:#3fb950;--green-ink:#7ee787;--teal-fill:#0c2826;--teal:#2bb5a5;--teal-ink:#5eead4;--rose-fill:#2e1424;--rose:#db61a2;--rose-ink:#ff9bce;--amber-fill:#2b2108;--amber:#d29922;--amber-ink:#e3b341;--red-fill:#2d1417;--red:#f85149;--red-ink:#ff7b72;}}text{font-family:-apple-system, BlinkMacSystemFont, 'Segoe UI', 'Noto Sans', Helvetica, Arial, sans-serif;fill:var(--ink)}.mono{font-family:ui-monospace, SFMono-Regular, 'SF Mono', Menlo, Consolas, monospace;white-space:pre}.canvas{fill:var(--bg);stroke:var(--line)}.h1{font-size:21px;font-weight:650;letter-spacing:-0.01em}.lede{font-size:13.5px;fill:var(--muted)}.group{fill:var(--panel);stroke:var(--line)}.group-label{font-size:11px;font-weight:650;letter-spacing:0.08em;fill:var(--muted)}.node{stroke-width:1.4;filter:drop-shadow(0 1px 2px var(--shadow))}.title{font-size:14px;font-weight:620}.sub{font-size:12px;fill:var(--muted)}.note{font-size:12px;fill:var(--muted)}.strong{fill:var(--ink);font-weight:620}.edge{fill:none;stroke-width:1.6;stroke-linecap:round;stroke-linejoin:round}.dash{stroke-dasharray:5 4}.pill-text{font-size:11.5px;font-weight:620}.chip{stroke-width:1}.chip-text{font-size:11px;font-weight:560}.badge-text{font-size:11px;font-weight:700;fill:var(--bg)}.rule{stroke:var(--line);stroke-width:1}</style>
<defs><marker id="a-slate" viewBox="0 0 10 10" refX="8.5" refY="5" markerWidth="7" markerHeight="7" orient="auto-start-reverse"><path d="M1,1 L9,5 L1,9 z" style="fill:var(--slate)"/></marker><marker id="a-rose" viewBox="0 0 10 10" refX="8.5" refY="5" markerWidth="7" markerHeight="7" orient="auto-start-reverse"><path d="M1,1 L9,5 L1,9 z" style="fill:var(--rose)"/></marker><marker id="a-amber" viewBox="0 0 10 10" refX="8.5" refY="5" markerWidth="7" markerHeight="7" orient="auto-start-reverse"><path d="M1,1 L9,5 L1,9 z" style="fill:var(--amber)"/></marker><marker id="a-teal" viewBox="0 0 10 10" refX="8.5" refY="5" markerWidth="7" markerHeight="7" orient="auto-start-reverse"><path d="M1,1 L9,5 L1,9 z" style="fill:var(--teal)"/></marker><marker id="a-violet" viewBox="0 0 10 10" refX="8.5" refY="5" markerWidth="7" markerHeight="7" orient="auto-start-reverse"><path d="M1,1 L9,5 L1,9 z" style="fill:var(--violet)"/></marker><marker id="a-blue" viewBox="0 0 10 10" refX="8.5" refY="5" markerWidth="7" markerHeight="7" orient="auto-start-reverse"><path d="M1,1 L9,5 L1,9 z" style="fill:var(--blue)"/></marker></defs>
<rect class="canvas" x="0.5" y="0.5" width="959" height="899" rx="18"/>
<text class="h1" x="32" y="46">What the watch sees</text>
<text class="lede" x="32" y="70">Code reads the facts, one reader reads the work, and whoever answers for the seat decides. The seat never hears of it.</text>
<rect class="node" x="24" y="110" width="160" height="58" rx="10" style="fill:var(--slate-fill);stroke:var(--slate)"/>
<text class="title" x="104" y="135.5" text-anchor="middle" style="fill:var(--slate-ink)">Lead or Peer</text>
<text class="sub" x="104" y="154.5" text-anchor="middle">never a Reviewer</text>
<rect class="node" x="24" y="196" width="160" height="58" rx="10" style="fill:var(--slate-fill);stroke:var(--slate)"/>
<text class="title" x="104" y="213" text-anchor="middle" style="fill:var(--slate-ink)">timeline</text>
<text class="sub" x="104" y="232" text-anchor="middle">live rows and paged</text>
<text class="sub" x="104" y="249" text-anchor="middle">history, joined</text>
<rect class="node" x="24" y="282" width="160" height="58" rx="10" style="fill:var(--slate-fill);stroke:var(--slate)"/>
<text class="title" x="104" y="299" text-anchor="middle" style="fill:var(--slate-ink)">window</text>
<text class="sub" x="104" y="318" text-anchor="middle">80 units per seat,</text>
<text class="sub" x="104" y="335" text-anchor="middle">keyed by call</text>
<path class="edge" d="M104,168 L104,196" style="stroke:var(--slate)" marker-end="url(#a-slate)"/>
<path class="edge" d="M104,254 L104,282" style="stroke:var(--slate)" marker-end="url(#a-slate)"/>
<text class="note" x="26" y="386" text-anchor="start"><tspan class="strong">When a reader reads</tspan></text>
<text class="note" x="26" y="403" text-anchor="start">once the seat falls quiet,</text>
<text class="note" x="26" y="420" text-anchor="start">at a pace while it works,</text>
<text class="note" x="26" y="437" text-anchor="start">and at once when a turn</text>
<text class="note" x="26" y="454" text-anchor="start">ends or something fails.</text>
<text class="note" x="26" y="471" text-anchor="start">Each reader keeps its</text>
<text class="note" x="26" y="488" text-anchor="start">own pace.</text>
<rect class="group" x="214" y="100" width="480" height="204" rx="14" style="fill:var(--teal-fill);stroke:var(--teal);stroke-opacity:0.35"/>
<text class="group-label" x="230" y="124" style="fill:var(--teal-ink)">IN CODE: TURNS AND LANE RECORDS</text>
<text class="sub" x="232" y="150" text-anchor="start">page</text>
<rect class="chip" x="282" y="136" width="78.48" height="20" rx="10" style="fill:var(--bg);stroke:var(--red);stroke-opacity:0.55"/>
<text class="chip-text" x="321.24" y="150" text-anchor="middle" style="fill:var(--red-ink)">destructive</text>
<text class="sub" x="232" y="178" text-anchor="start">attend</text>
<rect class="chip" x="282" y="164" width="45.7" height="20" rx="10" style="fill:var(--bg);stroke:var(--amber);stroke-opacity:0.55"/>
<text class="chip-text" x="304.85" y="178" text-anchor="middle" style="fill:var(--amber-ink)">stuck</text>
<rect class="chip" x="333.7" y="164" width="81.34" height="20" rx="10" style="fill:var(--bg);stroke:var(--amber);stroke-opacity:0.55"/>
<text class="chip-text" x="374.37" y="178" text-anchor="middle" style="fill:var(--amber-ink)">no-recovery</text>
<rect class="chip" x="421.03999999999996" y="164" width="96.74" height="20" rx="10" style="fill:var(--bg);stroke:var(--amber);stroke-opacity:0.55"/>
<text class="chip-text" x="469.40999999999997" y="178" text-anchor="middle" style="fill:var(--amber-ink)">test-weakened</text>
<rect class="chip" x="523.78" y="164" width="75.4" height="20" rx="10" style="fill:var(--bg);stroke:var(--amber);stroke-opacity:0.55"/>
<text class="chip-text" x="561.48" y="178" text-anchor="middle" style="fill:var(--amber-ink)">suppressed</text>
<rect class="chip" x="605.18" y="164" width="69.68" height="20" rx="10" style="fill:var(--bg);stroke:var(--amber);stroke-opacity:0.55"/>
<text class="chip-text" x="640.02" y="178" text-anchor="middle" style="fill:var(--amber-ink)">unverified</text>
<rect class="chip" x="282" y="190" width="66.60000000000001" height="20" rx="10" style="fill:var(--bg);stroke:var(--amber);stroke-opacity:0.55"/>
<text class="chip-text" x="315.3" y="204" text-anchor="middle" style="fill:var(--amber-ink)">long-turn</text>
<text class="sub" x="232" y="232" text-anchor="start">note</text>
<rect class="chip" x="282" y="218" width="69.9" height="20" rx="10" style="fill:var(--bg);stroke:var(--slate);stroke-opacity:0.55"/>
<text class="chip-text" x="316.95" y="232" text-anchor="middle" style="fill:var(--slate-ink)">call-failed</text>
<rect class="chip" x="357.9" y="218" width="75.62" height="20" rx="10" style="fill:var(--bg);stroke:var(--slate);stroke-opacity:0.55"/>
<text class="chip-text" x="395.71" y="232" text-anchor="middle" style="fill:var(--slate-ink)">gate-failed</text>
<rect class="chip" x="439.52" y="218" width="90.36000000000001" height="20" rx="10" style="fill:var(--bg);stroke:var(--slate);stroke-opacity:0.55"/>
<text class="chip-text" x="484.7" y="232" text-anchor="middle" style="fill:var(--slate-ink)">outside-scope</text>
<text class="sub" x="232" y="260" text-anchor="start">lanes</text>
<rect class="chip" x="282" y="246" width="82" height="20" rx="10" style="fill:var(--bg);stroke:var(--teal);stroke-opacity:0.55"/>
<text class="chip-text" x="323" y="260" text-anchor="middle" style="fill:var(--teal-ink)">rework-loop</text>
<rect class="chip" x="370" y="246" width="114.12000000000002" height="20" rx="10" style="fill:var(--bg);stroke:var(--teal);stroke-opacity:0.55"/>
<text class="chip-text" x="427.06" y="260" text-anchor="middle" style="fill:var(--teal-ink)">patched-not-fixed</text>
<rect class="chip" x="490.12" y="246" width="129.51999999999998" height="20" rx="10" style="fill:var(--bg);stroke:var(--teal);stroke-opacity:0.55"/>
<text class="chip-text" x="554.88" y="260" text-anchor="middle" style="fill:var(--teal-ink)">reviews-unconverged</text>
<rect class="chip" x="282" y="272" width="93.44000000000001" height="20" rx="10" style="fill:var(--bg);stroke:var(--teal);stroke-opacity:0.55"/>
<text class="chip-text" x="328.72" y="286" text-anchor="middle" style="fill:var(--teal-ink)">certainty-only</text>
<rect class="chip" x="381.44" y="272" width="108.84000000000002" height="20" rx="10" style="fill:var(--bg);stroke:var(--teal);stroke-opacity:0.55"/>
<text class="chip-text" x="435.86" y="286" text-anchor="middle" style="fill:var(--teal-ink)">brief-prewritten</text>
<rect class="chip" x="496.28000000000003" y="272" width="123.13999999999999" height="20" rx="10" style="fill:var(--bg);stroke:var(--teal);stroke-opacity:0.55"/>
<text class="chip-text" x="557.85" y="286" text-anchor="middle" style="fill:var(--teal-ink)">accepted-unfinished</text>
<rect class="group" x="214" y="322" width="480" height="150" rx="14" style="fill:var(--rose-fill);stroke:var(--rose);stroke-opacity:0.35"/>
<text class="group-label" x="230" y="346" style="fill:var(--rose-ink)">BY A WATCHER SEAT · THE DEFAULT</text>
<rect class="node" x="230" y="358" width="150" height="96" rx="10" style="fill:var(--rose-fill);stroke:var(--rose)"/>
<text class="title" x="305" y="385.5" text-anchor="middle" style="fill:var(--rose-ink)">reading</text>
<text class="sub" x="305" y="404.5" text-anchor="middle">only steps not shown,</text>
<text class="sub" x="305" y="421.5" text-anchor="middle">thoughts and the claim;</text>
<text class="sub" x="305" y="438.5" text-anchor="middle">refs R3.S5 · I4.2</text>
<rect class="node" x="392" y="358" width="130" height="96" rx="10" style="fill:var(--rose-fill);stroke:var(--rose)"/>
<text class="title" x="457" y="394" text-anchor="middle" style="fill:var(--rose-ink)">outbox</text>
<text class="sub" x="457" y="413" text-anchor="middle">batched, never</text>
<text class="sub" x="457" y="430" text-anchor="middle">into its turn</text>
<rect class="node dash" x="534" y="358" width="144" height="96" rx="10" style="fill:var(--rose-fill);stroke:var(--rose)"/>
<text class="title" x="606" y="385.5" text-anchor="middle" style="fill:var(--rose-ink)">Watcher</text>
<text class="sub" x="606" y="404.5" text-anchor="middle">a seat, on the</text>
<text class="sub" x="606" y="421.5" text-anchor="middle">Peer's agent until</text>
<text class="sub" x="606" y="438.5" text-anchor="middle">given its own</text>
<path class="edge" d="M380,406 L392,406" style="stroke:var(--rose)" marker-end="url(#a-rose)"/>
<path class="edge" d="M522,406 L534,406" style="stroke:var(--rose)" marker-end="url(#a-rose)"/>
<rect class="group" x="214" y="490" width="480" height="150" rx="14" style="fill:var(--amber-fill);stroke:var(--amber);stroke-opacity:0.35"/>
<text class="group-label" x="230" y="514" style="fill:var(--amber-ink)">BY JEV · ONLY WITH A KEY</text>
<rect class="node" x="230" y="526" width="106" height="96" rx="10" style="fill:var(--amber-fill);stroke:var(--amber)"/>
<text class="title" x="283" y="553.5" text-anchor="middle" style="fill:var(--amber-ink)">trail</text>
<text class="sub" x="283" y="572.5" text-anchor="middle">S1…Sn in order</text>
<text class="sub" x="283" y="589.5" text-anchor="middle">ran · changed</text>
<text class="sub" x="283" y="606.5" text-anchor="middle">said · thought</text>
<rect class="node" x="348" y="526" width="100" height="96" rx="10" style="fill:var(--amber-fill);stroke:var(--amber)"/>
<text class="title" x="398" y="553.5" text-anchor="middle" style="fill:var(--amber-ink)">four views</text>
<text class="sub" x="398" y="572.5" text-anchor="middle">each shows</text>
<text class="sub" x="398" y="589.5" text-anchor="middle">only what its</text>
<text class="sub" x="398" y="606.5" text-anchor="middle">questions need</text>
<rect class="node" x="460" y="526" width="96" height="96" rx="10" style="fill:var(--amber-fill);stroke:var(--amber)"/>
<text class="title" x="508" y="553.5" text-anchor="middle" style="fill:var(--amber-ink)">Jev</text>
<text class="sub" x="508" y="572.5" text-anchor="middle">yes or no,</text>
<text class="sub" x="508" y="589.5" text-anchor="middle">how sure;</text>
<text class="sub" x="508" y="606.5" text-anchor="middle">rules set bars</text>
<rect class="node" x="568" y="526" width="110" height="96" rx="10" style="fill:var(--amber-fill);stroke:var(--amber)"/>
<text class="title" x="623" y="545" text-anchor="middle" style="fill:var(--amber-ink)">pinpoint</text>
<text class="sub" x="623" y="564" text-anchor="middle">the step it</text>
<text class="sub" x="623" y="581" text-anchor="middle">meant is quoted;</text>
<text class="sub" x="623" y="598" text-anchor="middle">a sibling's note</text>
<text class="sub" x="623" y="615" text-anchor="middle">excuses it</text>
<path class="edge" d="M336,574 L348,574" style="stroke:var(--amber)" marker-end="url(#a-amber)"/>
<path class="edge" d="M448,574 L460,574" style="stroke:var(--amber)" marker-end="url(#a-amber)"/>
<path class="edge" d="M556,574 L568,574" style="stroke:var(--amber)" marker-end="url(#a-amber)"/>
<path class="edge" d="M184,311 L191.5,311.0 Q199,311 199.0,303.5 L199.0,207.5 Q199,200 206.5,200.0 L214,200" style="stroke:var(--teal)" marker-end="url(#a-teal)"/>
<path class="edge" d="M199,311 L199.0,398.0 Q199,406 207.0,406.0 L230,406" style="stroke:var(--rose)" marker-end="url(#a-rose)"/>
<path class="edge" d="M199,406 L199.0,566.0 Q199,574 207.0,574.0 L230,574" style="stroke:var(--amber)" marker-end="url(#a-amber)"/>
<rect class="node" x="754" y="110" width="182" height="130" rx="10" style="fill:var(--slate-fill);stroke:var(--slate)"/>
<text class="group-label" x="770" y="136" text-anchor="start">LEVELS</text>
<text class="note" x="770" y="162" text-anchor="start"><tspan class="strong">page</tspan> goes at once</text>
<text class="note" x="770" y="183" text-anchor="start"><tspan class="strong">attend</tspan> may wait for its</text>
<text class="note" x="770" y="204" text-anchor="start">reader; capped per day</text>
<text class="note" x="770" y="225" text-anchor="start"><tspan class="strong">note</tspan> is only evidence</text>
<rect class="node" x="754" y="330" width="182" height="150" rx="10" style="fill:var(--slate-fill);stroke:var(--slate)"/>
<text class="title mono" x="770" y="356" text-anchor="start">incidents.json</text>
<text class="sub" x="770" y="376" text-anchor="start">one open per seat,</text>
<text class="sub" x="770" y="393" text-anchor="start">kind and reader</text>
<rect class="chip" x="770" y="406" width="55.160000000000004" height="20" rx="10" style="fill:var(--bg);stroke:var(--slate);stroke-opacity:0.55"/>
<text class="chip-text" x="797.58" y="420" text-anchor="middle" style="fill:var(--slate-ink)">shadow</text>
<rect class="chip" x="831.16" y="406" width="61.32" height="20" rx="10" style="fill:var(--bg);stroke:var(--slate);stroke-opacity:0.55"/>
<text class="chip-text" x="861.8199999999999" y="420" text-anchor="middle" style="fill:var(--slate-ink)">awaiting</text>
<rect class="chip" x="770" y="432" width="51.64" height="20" rx="10" style="fill:var(--bg);stroke:var(--slate);stroke-opacity:0.55"/>
<text class="chip-text" x="795.82" y="446" text-anchor="middle" style="fill:var(--slate-ink)">vetoed</text>
<rect class="chip" x="827.64" y="432" width="51.64" height="20" rx="10" style="fill:var(--bg);stroke:var(--slate);stroke-opacity:0.55"/>
<text class="chip-text" x="853.46" y="446" text-anchor="middle" style="fill:var(--slate-ink)">budget</text>
<rect class="chip" x="770" y="458" width="51.64" height="20" rx="10" style="fill:var(--bg);stroke:var(--slate);stroke-opacity:0.55"/>
<text class="chip-text" x="795.82" y="472" text-anchor="middle" style="fill:var(--slate-ink)">nobody</text>
<path class="edge" d="M694,280 L716.0,280.0 Q724,280 724.0,288.0 L724.0,348.0 Q724,356 732.0,356.0 L754,356" style="stroke:var(--teal)" marker-end="url(#a-teal)"/>
<path class="edge" d="M678,406 L754,406" style="stroke:var(--rose)" marker-end="url(#a-rose)"/>
<path class="edge" d="M678,574 L716.0,574.0 Q724,574 724.0,566.0 L724.0,460.0 Q724,452 732.0,452.0 L754,452" style="stroke:var(--amber)" marker-end="url(#a-amber)"/>
<rect class="node" x="754" y="530" width="182" height="70" rx="10" style="fill:var(--violet-fill);stroke:var(--violet)"/>
<text class="title" x="845" y="553" text-anchor="middle" style="fill:var(--violet-ink)">INCIDENT</text>
<text class="sub" x="845" y="572" text-anchor="middle">sent once, never to</text>
<text class="sub" x="845" y="589" text-anchor="middle">the seat it watched</text>
<path class="edge" d="M845,480 L845,530" style="stroke:var(--violet)" marker-end="url(#a-violet)"/>
<rect class="node" x="754" y="690" width="182" height="64" rx="10" style="fill:var(--violet-fill);stroke:var(--violet)"/>
<text class="title" x="845" y="710" text-anchor="middle" style="fill:var(--violet-ink)">Supervisor</text>
<text class="sub" x="845" y="729" text-anchor="middle">about a Lead, a page, or</text>
<text class="sub" x="845" y="746" text-anchor="middle">a Peer whose Lead is gone</text>
<rect class="node" x="530" y="690" width="190" height="64" rx="10" style="fill:var(--blue-fill);stroke:var(--blue)"/>
<text class="title" x="625" y="710" text-anchor="middle" style="fill:var(--blue-ink)">Lead</text>
<text class="sub" x="625" y="729" text-anchor="middle">about a Peer in</text>
<text class="sub" x="625" y="746" text-anchor="middle">its own lane</text>
<path class="edge" d="M845,600 L845,690" style="stroke:var(--violet)" marker-end="url(#a-violet)"/>
<path class="edge" d="M800,600 L800.0,652.0 Q800,660 792.0,660.0 L633.0,660.0 Q625,660 625.0,668.0 L625,690" style="stroke:var(--blue)" marker-end="url(#a-blue)"/>
<rect class="node" x="530" y="790" width="406" height="50" rx="10" style="fill:var(--slate-fill);stroke:var(--slate)"/>
<text class="note" x="733" y="820" text-anchor="middle"><tspan class="strong">ack</tspan>  useful · noise · unknown, from the agent's own record</text>
<path class="edge" d="M625,754 L625,790" style="stroke:var(--blue)" marker-end="url(#a-blue)"/>
<path class="edge" d="M845,754 L845,790" style="stroke:var(--violet)" marker-end="url(#a-violet)"/>
<rect class="node" x="282" y="790" width="200" height="50" rx="10" style="fill:var(--slate-fill);stroke:var(--slate)"/>
<text class="title mono" x="382" y="820" text-anchor="middle" style="fill:var(--slate-ink)">bin/calibrate.ts</text>
<rect class="node" x="24" y="790" width="210" height="50" rx="10" style="fill:var(--slate-fill);stroke:var(--slate)"/>
<text class="title mono" x="129" y="820" text-anchor="middle" style="fill:var(--slate-ink)">assessments/</text>
<path class="edge" d="M530,815 L482,815" style="stroke:var(--slate)" marker-end="url(#a-slate)"/>
<path class="edge" d="M234,815 L282,815" style="stroke:var(--slate)" marker-end="url(#a-slate)"/>
<path class="edge" d="M508,622 L508.0,662.0 Q508,670 500.0,670.0 L137.0,670.0 Q129,670 129.0,678.0 L129,790" style="stroke:var(--amber)" marker-end="url(#a-amber)"/>
<text class="note" x="24" y="872" text-anchor="start"><tspan class="strong">attention.by picks the reader. </tspan>A Watcher seat needs no key; Jev needs one, and without it nothing is watched.</text>
<text class="note" x="24" y="890" text-anchor="start">Mailing incidents is a second switch, off by default: until it is on they are kept and listed, never sent.</text>
<rect x="702.475" y="306" width="43.05" height="20" rx="6" style="fill:var(--bg)"/>
<text class="pill-text" x="724" y="320" text-anchor="middle" style="fill:var(--teal-ink)">facts</text>
<rect x="694.475" y="388.5" width="43.05" height="35" rx="6" style="fill:var(--bg)"/>
<text class="pill-text" x="716" y="402.5" text-anchor="middle" style="fill:var(--rose-ink)">raise</text>
<text class="pill-text" x="716" y="417.5" text-anchor="middle" style="fill:var(--rose-ink)">judge</text>
<rect x="699.255" y="502" width="49.49" height="20" rx="6" style="fill:var(--bg)"/>
<text class="pill-text" x="724" y="516" text-anchor="middle" style="fill:var(--amber-ink)">finding</text>
<rect x="482.635" y="805" width="46.73" height="20" rx="6" style="fill:var(--bg)"/>
<text class="pill-text" x="506" y="819" text-anchor="middle" style="fill:var(--slate-ink)">marks</text>
<rect x="242.595" y="660" width="114.81000000000002" height="20" rx="6" style="fill:var(--bg)"/>
<text class="pill-text" x="300" y="674" text-anchor="middle" style="fill:var(--amber-ink)">every reading kept</text>
</svg>
